<svg height="511pt" viewBox="0 -21 511.99897 511" width="511pt" xmlns="http://www.w3.org/2000/svg"><g fill="#8c4949"><path d="m137.851562 200.777344c-2.042968 0-4.117187-.394532-6.121093-1.234375l-39.234375-16.417969c-29.660156-12.410156-51.753906-37.25-60.617188-68.144531-4.667968-16.273438-14.324218-30.121094-23.253906-44.269531-4.679688-7.417969-2.460938-17.21875 4.953125-21.898438 7.417969-4.679688 17.21875-2.460938 21.898437 4.953125 10.65625 16.886719 21.359376 33.046875 26.917969 52.441406 6.1875 21.59375 21.628907 38.953125 42.359375 47.628907l39.234375 16.417968c8.085938 3.382813 11.898438 12.683594 8.515625 20.773438-2.546875 6.085937-8.445312 9.75-14.652344 9.75zm0 0"/><path d="m19.910156 457.71875c-2.921875 0-5.878906-.804688-8.523437-2.496094-7.390625-4.714844-9.558594-14.53125-4.84375-21.921875 8.960937-14.078125 20.378906-28.191406 24.640625-44.585937 8.226562-31.640625 31.148437-58.0625 61.316406-70.6875l39.230469-16.417969c8.089843-3.382813 17.390625.429687 20.773437 8.515625 3.382813 8.089844-.429687 17.390625-8.515625 20.773438l-39.234375 16.417968c-21.078125 8.820313-37.09375 27.28125-42.839844 49.386719-5.136718 19.75-17.777343 36.710937-28.605468 53.679687-3.027344 4.746094-8.15625 7.335938-13.398438 7.335938zm0 0"/><path d="m15.859375 289.859375c-7.449219 0-14.097656-5.273437-15.566406-12.863281-1.667969-8.605469 3.960937-16.9375 12.566406-18.601563 0 0 19.378906-3.753906 19.382813-3.753906 10.105468-1.957031 18.949218-6.832031 27.925781-11.613281 13.980469-7.445313 29.742187-11.378906 45.582031-11.378906h37.90625c8.765625 0 15.875 7.105468 15.875 15.875 0 8.765624-7.109375 15.875-15.875 15.875h-37.90625c-10.652344 0-21.253906 2.644531-30.65625 7.652343-11.890625 6.332031-23.464844 12.175781-36.816406 14.761719 0 0-18.527344 4.046875-22.417969 4.046875zm0 0"/><path d="m374.148438 200.777344c2.042968 0 4.117187-.394532 6.121093-1.234375l39.230469-16.417969c29.671875-12.414062 51.765625-37.261719 60.628906-68.171875 4.652344-16.226563 14.339844-30.132813 23.246094-44.246094 4.675781-7.414062 2.460938-17.21875-4.957031-21.898437-7.414063-4.675782-17.21875-2.457032-21.894531 4.957031-10.660157 16.890625-21.359376 33.039063-26.917969 52.441406-6.191407 21.59375-21.628907 38.953125-42.359375 47.628907l-39.234375 16.417968c-8.085938 3.382813-11.898438 12.683594-8.515625 20.773438 2.546875 6.085937 8.445312 9.75 14.652344 9.75zm0 0"/><path d="m492.085938 457.71875c2.925781 0 5.882812-.804688 8.527343-2.496094 7.390625-4.714844 9.558594-14.53125 4.839844-21.921875-8.976563-14.058593-20.382813-28.199219-24.640625-44.585937-8.226562-31.640625-31.148438-58.0625-61.3125-70.6875l-39.230469-16.417969c-8.089843-3.382813-17.390625.429687-20.773437 8.515625-3.382813 8.089844.429687 17.390625 8.515625 20.773438l39.234375 16.417968c21.078125 8.820313 37.09375 27.28125 42.839844 49.386719 5.152343 19.816406 17.742187 36.660156 28.605468 53.679687 3.027344 4.746094 8.15625 7.335938 13.394532 7.335938zm0 0"/><path d="m496.136719 289.859375c7.453125 0 14.101562-5.273437 15.570312-12.863281 1.667969-8.605469-3.960937-16.9375-12.570312-18.601563l-19.378907-3.753906c-6.378906-1.234375-12.523437-3.410156-18.261718-6.464844l-9.664063-5.148437c-13.980469-7.445313-29.742187-11.378906-45.582031-11.378906h-37.90625c-8.769531 0-15.875 7.105468-15.875 15.875 0 8.765624 7.109375 15.875 15.875 15.875h37.90625c10.652344 0 21.253906 2.644531 30.65625 7.652343 0 0 9.664062 5.148438 9.664062 5.148438 14.484376 7.714843 30.617188 10.285156 46.53125 13.367187 1.019532.195313 2.035157.292969 3.035157.292969zm0 0"/><path d="m314.972656 51.691406c0-28.273437-28.179687-51.191406-62.941406-51.191406-34.765625 0-62.945312 22.917969-62.945312 51.191406 0 28.273438 28.179687 51.191406 62.945312 51.191406 34.761719 0 62.941406-22.917968 62.941406-51.191406zm0 0"/></g><path d="m252.03125.5c-9.175781 0-17.894531 1.597656-25.753906 4.46875 21.921875 8.003906 37.1875 25.914062 37.1875 46.722656s-15.265625 38.71875-37.1875 46.722656c7.859375 2.871094 16.578125 4.46875 25.753906 4.46875 34.761719 0 62.941406-22.917968 62.941406-51.191406 0-28.273437-28.179687-51.191406-62.941406-51.191406zm0 0" fill="#7f4141"/><path d="m357.875 122.644531c0-47.542969-47.390625-86.082031-105.84375-86.082031-58.457031 0-105.84375 38.539062-105.84375 86.082031s47.386719 86.082031 105.84375 86.082031c58.453125 0 105.84375-38.539062 105.84375-86.082031zm0 0" fill="#525467"/><path d="m252.03125 36.5625c-8.945312 0-17.628906.902344-25.925781 2.601562 45.921875 9.40625 79.917969 43.214844 79.917969 83.480469s-33.996094 74.074219-79.917969 83.480469c8.296875 1.699219 16.980469 2.601562 25.925781 2.601562 58.457031 0 105.84375-38.542968 105.84375-86.082031 0-47.542969-47.386719-86.082031-105.84375-86.082031zm0 0" fill="#3c3f4e"/><path d="m306.339844 454.25c-33.449219 19.988281-75.171875 19.988281-108.621094 0-54.707031-32.695312-88.203125-91.734375-88.203125-155.464844v-99.832031c0-53.058594 43.015625-96.070313 96.070313-96.070313h92.886718c53.058594 0 96.070313 43.011719 96.070313 96.070313v99.832031c.003906 63.730469-33.496094 122.769532-88.203125 155.464844zm0 0" fill="#f43b45"/><path d="m298.472656 102.882812h-52.539062c53.058594 0 96.070312 43.015626 96.070312 96.070313v99.832031c0 63.730469-35.265625 137.6875-89.972656 170.382813 0 0-.386719.027343-1.113281.066406 19.164062.203125 38.367187-4.792969 55.421875-14.984375 54.707031-32.691406 88.203125-91.734375 88.203125-155.464844v-99.832031c.003906-53.058594-43.011719-96.070313-96.070313-96.070313zm0 0" fill="#cf3735"/><path d="m252.03125 102.882812h-46.445312c-53.058594 0-96.070313 43.015626-96.070313 96.070313v99.832031c0 63.730469 33.496094 122.769532 88.203125 155.464844 16.726562 9.996094 35.519531 14.992188 54.3125 14.992188zm0 0" fill="#f43b45"/><path d="m298.472656 102.882812h-92.886718c-21.457032 0-41.273438 7.035157-57.265626 18.925782-33.085937 24.605468-15.796874 77.148437 25.4375 77.148437h156.609376c40.316406 0 58.742187-51.339843 26.863281-76.019531-16.246094-12.570312-36.628907-20.054688-58.757813-20.054688zm0 0" fill="#676a75"/><path d="m298.472656 102.882812h-92.886718c-21.457032 0-41.273438 7.035157-57.265626 18.925782-33.085937 24.605468-15.796874 77.148437 25.4375 77.148437h156.609376c40.316406 0 58.742187-51.339843 26.863281-76.019531-16.246094-12.570312-36.628907-20.054688-58.757813-20.054688zm0 0" fill="#676a75"/><path d="m357.226562 122.9375c-16.242187-12.570312-36.625-20.054688-58.753906-20.054688h-52.53125c52.542969.003907 95.234375 42.191407 96.050782 94.542969 31.921874-8.683593 43.863281-52.328125 15.234374-74.488281zm0 0" fill="#454851"/><path d="m244.304688 198.953125v269.996094c5.144531.378906 10.308593.378906 15.453124 0v-269.996094zm0 0" fill="#cf3735"/></svg>